<?xml version="1.0" standalone="no"?>
<!DOCTYPE svg PUBLIC "-//W3C//DTD SVG 20010904//EN"
 "http://www.w3.org/TR/2001/REC-SVG-20010904/DTD/svg10.dtd">
<svg version="1.0" xmlns="http://www.w3.org/2000/svg"
 width="83.000000pt" height="41.000000pt" viewBox="0 0 83.000000 41.000000"
 preserveAspectRatio="xMidYMid meet" fill="#8b0000">

<g transform="translate(0.000000,41.000000) scale(0.100000,-0.100000)" stroke="none">
<path d="M310 340 c-14 -26 8 -37 40 -20 17 9 19 14 9 26 -16 20 -36 17 -49
-6z"/>
<path d="M325 290 c-76 -37 -118 -38 -149 -5 -13 14 -29 25 -35 25 -20 0 -41
-65 -41 -125 l0 -55 96 0 c59 0 117 -6 152 -16 45 -13 85 -16 202 -11 158 5
180 10 180 37 0 20 -34 34 -109 45 -25 3 -62 15 -82 27 -32 18 -41 19 -54 8
-19 -16 -32 -6 -17 13 18 21 1 29 -20 10 -22 -20 -36 -10 -18 12 9 11 10 19 3
26 -7 7 -14 5 -23 -6 -7 -8 -17 -15 -23 -15 -5 0 -2 9 7 19 16 18 15 42 -2 41
-4 -1 -34 -14 -67 -30z"/>
<path d="M100 81 c0 -17 9 -20 76 -26 54 -5 82 -4 99 5 19 10 27 10 39 1 23
-19 334 -16 380 3 20 8 36 20 36 27 0 7 -7 8 -17 4 -41 -17 -246 -26 -327 -14
-44 6 -127 14 -183 16 -97 4 -103 3 -103 -16z"/>
</g>
</svg>
